<svg id="Layer_1" data-name="Layer 1" xmlns="http://www.w3.org/2000/svg" viewBox="0 0 390.65 63.2"><defs><style>.cls-1{fill:#fff;}.cls-2{fill:#ef482c;}</style></defs><title>tibcert-logo-svg-on-dark</title><path class="cls-1" d="M193.6,7c-.1,2.1-.9,4-1.3,6-.5,2.4-1.2,4.7-1.8,7.1-.4,1.6-.6,1.8-2.2,1.8H143.7c-1.3,0-1.7.5-1.9,1.6-.3,1.4-.6,2.8-1,4.2-.2.6-.4,1-1.2,1H126.8c-.6,0-.9.1-.7-.8,1.1-4.8,2-9.6,3-14.4.3-1.6.7-3.2,1-4.8a2.14,2.14,0,0,1,1.2-1.6Q162.35,7,193.6,7Z" transform="translate(-8.4 -6.4)"/><path class="cls-1" d="M262.3,6.8c1.9,0,2.8,1.1,2.3,2.9-.9,3.5-1.8,6.9-2.7,10.3a1.71,1.71,0,0,1-1.9,1.4H201.7c-1.7,0-2.6-1.1-2.2-2.9.9-3.5,1.6-6,2.5-9.5a2.55,2.55,0,0,1,2.7-2.2Z" transform="translate(-8.4 -6.4)"/><path class="cls-1" d="M397.8,6.5H345a2.59,2.59,0,0,0-1.2,1.7c-.9,3.4-1.8,6.7-2.6,10.1-.6,2.2.1,3,2.4,3h16.2a2.4,2.4,0,0,1,1.4.2c-.6.4-.3,1-.5,1.5-1.8,6.5-3.7,13-5.4,19.6-2,7.9-4.1,15.8-6.2,23.6a2,2,0,0,0,2.1,2.8h10.7a1.44,1.44,0,0,0,1.6-1.2c.7-2.8,1.6-5.6,2.4-8.4L371,39.6l4.5-16.8a1.8,1.8,0,0,1,2-1.5c5.7.1,11.4,0,17.2,0a1.51,1.51,0,0,0,1.7-1.4,3.55,3.55,0,0,0,.2-1A89.78,89.78,0,0,1,399,10V7.6C399.2,6.7,398.8,6.5,397.8,6.5Z" transform="translate(-8.4 -6.4)"/><path class="cls-2" d="M63.6,7.1a.65.65,0,0,0-.6-.6H9.5c-.7,0-1.1.2-1.1,1V18.3a1.39,1.39,0,0,0,1.1,1H27.6c.8,0,1.6.3,1.5,1.4-.2,3.6-.3,7.3-.5,10.9-.1,2-.1,4.1-.2,6.1-.3,4.7-.4,9.5-.6,14.2-.1,2.8-.2,5.7-.4,8.5a59.53,59.53,0,0,1-.4,7.3,1.89,1.89,0,0,0,.3,1.6h13c0-1.1.2-2.3.2-3.4.1-3.8.3-7.6.5-11.4s.3-7.6.5-11.4.3-7.6.5-11.4.3-7.8.5-11.6c0-.7.2-.9.9-.9H62.6c.5,0,.9,0,.9-.7V7.1Z" transform="translate(-8.4 -6.4)"/><path class="cls-1" d="M220.4,54.5h29c2,0,2.6.8,2.2,2.8-.7,3.6-2,7.1-2.7,10.7-.2.8-.7,1-1.4,1.1a3.33,3.33,0,0,1-1,0H189.9a16,16,0,0,1-2.3-.3,1.52,1.52,0,0,1-1.1-1.9c.9-3.8,1.9-7.5,2.9-11.3a1.61,1.61,0,0,1,1.8-1.2C201,54.5,210.7,54.5,220.4,54.5Z" transform="translate(-8.4 -6.4)"/><path class="cls-1" d="M224.5,45.2H195.2c-1.7,0-2.4-.9-2-2.5.9-3.5,1.8-7.1,2.7-10.6a1.62,1.62,0,0,1,2.1-1.3,4,4,0,0,0,1.1,0h56.5c2.4,0,3,.8,2.4,3.2-.9,3.4-1.8,6.7-2.6,10.1a1.26,1.26,0,0,1-1.6,1.1C244.1,45.1,234.3,45.2,224.5,45.2Z" transform="translate(-8.4 -6.4)"/><path class="cls-1" d="M170,54.5h7.2c2.3,0,3.3,1.1,2.7,3.4-.9,3.3-1.9,6.6-2.8,9.9a1.24,1.24,0,0,1-1.4,1.1c-5.9,0-11.9.2-17.8.2h-.7c-.2,0-.6.2-.7-.2s.3-.5.4-.6c2.3-2.4,3.3-5.4,3.9-8.6.3-1.5,0-3,.4-4.5.2-.7.4-.8,1-.8C164.7,54.5,167.3,54.5,170,54.5Z" transform="translate(-8.4 -6.4)"/><path class="cls-1" d="M336.3,14.1c-1-4.9-4.8-7.4-9.3-7.4-12.6,0-44.9.1-48.3.1a2.57,2.57,0,0,0-2.3,2c-.8,2.6-1.6,4.7-2.3,7.3-1.4,5.6-3,11.1-4.4,16.6-1.4,5.3-2.8,10.7-4.2,16-1.6,6-3.3,12-4.9,17.9-.2.7.5,2.3,1.3,2.3a24,24,0,0,1,3.7.3c2.8.1,5.6-.4,8.5-.2.8,0,1-.5,1.1-1,.5-1.7.9-3.4,1.4-5,1.6-6.3,3.2-12.6,4.9-18.9a14.34,14.34,0,0,1,1.5-4.4c3.5,4.8,6.8,9.5,10.3,14.1s7,9.4,10.3,14.2a3,3,0,0,0,2.5,1.3h8.2c2.2-.1,4.4.3,6.7-.2a1.65,1.65,0,0,0,1.1-2.7c-2.4-3.3-4.8-6.6-7.3-9.9s-4.9-6.7-7.4-10.1c-.1-.2-.6-.4-.4-.8s.6-.2.9-.2c3.9-.1,7.8.2,11.7-.2a11.34,11.34,0,0,0,5.2-1.6,15.89,15.89,0,0,0,7-8.9c1.6-5.1,2.9-10.3,4.1-15.5A13,13,0,0,0,336.3,14.1ZM318.4,29.7a1.34,1.34,0,0,1-1.5,1.1H286.3c-.8,0-1.2-.3-1-1,.6-2.4,1.2-4.7,1.9-7.1a1.47,1.47,0,0,1,1.6-1.3h31.7C319.9,24.2,319.2,27,318.4,29.7Z" transform="translate(-8.4 -6.4)"/><path class="cls-2" d="M156.3,36.9a5.61,5.61,0,0,0,2.9-4.2c.5-2.6.1-5.3.2-8,0-.6-.4-.5-.7-.5h-11c-.5,0-.6.1-.7.6a17,17,0,0,0-.2,4.5c.1,1.5-.3,1.8-1.9,1.8H128.3c-6.2,0-12.4-.1-18.5.2-1.3.1-1.8-.3-1.7-1.7.2-2.8.4-5.5.5-8.3a2,2,0,0,1,2.3-2.3h11.6c1,0,1.3-.3,1.5-1.2.6-3.2,1.3-6.5,1.9-9.7.3-1.5.3-1.5-1.3-1.5H97.7c-1.3,0-1.6.3-1.6,1.6-.1,1.5-.1,3-.2,4.5-.2,3.8-.4,7.5-.5,11.3s-.3,7.4-.5,11.1c-.2,3.9-.2,7.8-.5,11.6-.2,2.2,0,4.4-.2,6.7-.2,3-.1,6-.3,9.1-.2,2.3,0,4.6,0,6.8h52.8c.3-.5.7-.2,1.1-.2a9.64,9.64,0,0,0,4.6-1.5,11.76,11.76,0,0,0,5.1-8.9c.4-3.9.2-7.7.8-11.6a10.64,10.64,0,0,0-2.5-8.2C155.1,38,155.2,37.5,156.3,36.9ZM144.8,54.6c0,1.5-.7,2.1-2.5,2.1H109c-1.5,0-2.1-.8-1.7-2.2,0-.2.1-.4.1-.6-.2-2.5.3-4.9.2-7.4,0-1.6-.2-2.1,2.2-2.1h33.9c1.1,0,1.3.3,1.4,1.4C145.2,48.7,144.7,51.6,144.8,54.6Z" transform="translate(-8.4 -6.4)"/><path class="cls-1" d="M126.8,47.8H133c.9,0,1.1.3.9,1.2-.3,1.1-.5,2.3-.7,3.4-.1.7-.5.9-1.2.9H119.8c-.7,0-.9-.2-.7-.9.3-1.2.5-2.4.7-3.6.1-.7.4-.9,1.1-.9,1.9-.1,3.9-.1,5.9-.1Z" transform="translate(-8.4 -6.4)"/><path class="cls-2" d="M83.7,69.6H74.1a1.37,1.37,0,0,1-1.4-1.4V7.8a1.37,1.37,0,0,1,1.4-1.4h9.6a1.37,1.37,0,0,1,1.4,1.4V68.2A1.37,1.37,0,0,1,83.7,69.6Z" transform="translate(-8.4 -6.4)"/></svg>