<?xml version="1.0" encoding="UTF-8"?>
<svg id="Layer_1" xmlns="http://www.w3.org/2000/svg" version="1.1" viewBox="0 0 128 128">
  <!-- Generator: Adobe Illustrator 29.2.1, SVG Export Plug-In . SVG Version: 2.1.0 Build 116)  -->
  <defs>
    <style>
      .st0 {
        fill: #f04a2a;
      }

      .st1 {
        fill: #fff;
      }
    </style>
  </defs>
  <path class="st1" d="M130.3-4.6c.9,1.9,1.1,4,1.6,5.9.7,2.4,1.1,4.7,1.7,7.1.4,1.6.3,1.9-1.1,2.6l-39.5,20.6c-1.2.6-1.3,1.2-.9,2.3.4,1.4.8,2.8,1.1,4.2.1.6.1,1.1-.6,1.4l-11.3,5.9c-.5.3-.8.5-1-.4-1.2-4.8-2.7-9.4-4-14.2-.5-1.6-.9-3.2-1.3-4.7-.2-.7-.1-1.4.3-2,18.3-9.6,36.7-19.3,55.2-28.9Z"/>
  <path class="st1" d="M191.2-36.6c1.7-.9,3-.3,3.4,1.5.8,3.5,1.6,6.9,2.4,10.4.3.9-.2,1.8-1,2.1l-51.7,27c-1.5.8-2.8.2-3.3-1.6-.8-3.5-1.4-6.1-2.2-9.6-.5-1.3.1-2.7,1.4-3.2l51.1-26.6Z"/>
  <path class="st1" d="M311.1-99.5l-46.8,24.4c-.4.6-.5,1.4-.3,2.1.8,3.4,1.5,6.8,2.4,10.2.5,2.2,1.5,2.6,3.5,1.5l14.4-7.5c.4-.3.9-.5,1.3-.5-.3.6.2,1,.3,1.6,1.4,6.6,2.7,13.2,4.3,19.9,1.9,7.9,3.7,15.9,5.4,23.8,0,1.1,1,1.9,2.1,1.9.4,0,.7-.1,1-.4l9.5-5c.7-.3,1.1-1.1.9-1.8-.7-2.8-1.2-5.7-1.8-8.6l-4.6-19.9-3.8-17c-.3-.9.2-1.9,1.1-2.3,5.1-2.5,10.1-5.3,15.2-8,.8-.3,1.2-1.2.9-1.9,0,0,0,0,0,0,0-.3-.1-.7-.3-1-.8-3-1.5-6-2-9l-1.1-2.1c-.2-.9-.7-.9-1.6-.4Z"/>
  <path class="st0" d="M15.1,55.6c-.2-.3-.5-.4-.8-.3l-47.4,24.8c-.6.3-.9.7-.5,1.4l5,9.6c.4.4.9.5,1.4.4l16-8.4c.7-.4,1.6-.5,2,.5,1.5,3.3,3.1,6.6,4.6,9.9.8,1.8,1.8,3.7,2.6,5.5,1.9,4.3,4,8.6,6,12.9,1.2,2.5,2.5,5.1,3.6,7.7,1.1,2.2,2.2,4.4,3,6.7.1.6.5,1,1,1.3l11.5-6c-.5-1-.9-2.1-1.4-3.1-1.7-3.4-3.3-6.9-4.8-10.3s-3.3-6.9-4.8-10.3c-1.6-3.5-3.3-6.9-4.8-10.3s-3.3-7.1-4.9-10.5c-.3-.6-.2-.9.4-1.2l17-8.9c.4-.2.8-.4.5-1l-5.3-10.1h0Z"/>
  <path class="st1" d="M176.1,25.1l25.7-13.4c1.8-.9,2.7-.5,3.2,1.5,1,3.5,1.5,7.2,2.6,10.7.2.8-.2,1.2-.7,1.6-.3.2-.6.4-.9.5l-50.2,26.2c-.7.3-1.4.6-2.2.8-.8.2-1.6-.3-1.8-1.1,0,0,0,0,0,0-1-3.8-1.8-7.5-2.7-11.4-.2-.8.3-1.6,1-1.9,8.7-4.4,17.3-8.9,25.9-13.4Z"/>
  <path class="st1" d="M175.4,15l-26,13.6c-1.5.8-2.5.3-2.9-1.3-.8-3.5-1.7-7.1-2.5-10.6-.3-.8.2-1.8,1-2.1,0,0,.2,0,.3,0,.3-.1.7-.3,1-.5l50.1-26.1c2.1-1.1,3-.7,3.6,1.7.8,3.4,1.5,6.8,2.4,10.2.3.6,0,1.4-.7,1.6,0,0-.1,0-.2,0-8.6,4.4-17.3,9-26,13.6Z"/>
  <path class="st1" d="M131.4,48.4l6.4-3.3c2-1.1,3.4-.6,4,1.8.7,3.3,1.4,6.7,2.1,10.1.3.6,0,1.4-.7,1.6,0,0,0,0,0,0-5.2,2.7-10.5,5.7-15.7,8.4l-.6.3c-.2,0-.4.5-.7.1s0-.6,0-.7c.9-3.2.4-6.3-.5-9.4-.4-1.5-1.4-2.7-1.7-4.2-.1-.7,0-.9.5-1.2,2.3-1.1,4.6-2.3,7-3.5Z"/>
  <path class="st1" d="M260.1-64.3c-3.2-3.9-7.7-4.3-11.7-2.3-11.2,5.8-39.8,20.9-42.8,22.4-1,.6-1.4,1.7-1.1,2.8.5,2.7.8,4.9,1.3,7.5,1.3,5.6,2.5,11.2,3.8,16.8,1.2,5.3,2.5,10.8,3.7,16.1,1.4,6.1,2.6,12.2,3.9,18.1.1.7,1.5,1.8,2.2,1.4,1.1-.6,2.2-1.1,3.4-1.4,2.5-1.2,4.8-2.9,7.4-4.1.7-.4.7-.9.5-1.4-.3-1.7-.8-3.4-1.1-5.1-1.5-6.3-3-12.7-4.4-19-.5-1.5-.7-3-.7-4.6,5.3,2.6,10.4,5.3,15.7,7.7s10.6,5.1,15.7,7.8c.9.5,1.9.5,2.8,0l7.3-3.8c1.9-1.1,4-1.8,5.8-3.3.8-.5,1-1.5.5-2.3-.2-.3-.4-.5-.7-.6-3.7-1.8-7.3-3.6-11.1-5.4-3.7-1.8-7.4-3.7-11.2-5.5-.2-.1-.7,0-.7-.5s.4-.5.7-.6c3.4-1.9,7-3.4,10.3-5.6,1.6-.9,2.9-2.3,3.9-3.8,2-3.3,2.8-7.3,2.1-11.1-.9-5.3-2.2-10.5-3.5-15.6-.4-1.7-1-3.3-2-4.7ZM251.5-42.2c.2.7-.1,1.4-.8,1.7l-27.1,14.2c-.7.4-1.2.3-1.3-.4-.6-2.4-1.1-4.7-1.6-7.2-.3-.7,0-1.6.8-1.9l28.1-14.7c.8,2.8,1.4,5.6,2,8.3Z"/>
  <path class="st0" d="M111.1,39.2c1-1.5,1.2-3.4.6-5.1-.8-2.5-2.4-4.7-3.5-7.2-.3-.5-.6-.3-.9-.1l-9.8,5.1c-.4.2-.5.4-.3.9.5,1.4,1.1,2.8,1.9,4.1.8,1.3.6,1.7-.9,2.5l-14.7,7.7c-5.5,2.9-11,5.6-16.3,8.7-1.1.7-1.7.6-2.3-.7-1.1-2.6-2.2-5.1-3.4-7.6-.7-.9-.5-2.1.4-2.8.2-.1.4-.2.6-.3l10.3-5.4c.9-.5,1-.9.8-1.8-.9-3.1-1.9-6.4-2.8-9.5q-.4-1.5-1.8-.7l-23.8,12.4c-1.2.6-1.3,1-.7,2.2.6,1.4,1.3,2.7,1.9,4.1,1.6,3.5,3.1,6.8,4.8,10.2s3.2,6.7,4.7,10.1c1.6,3.6,3.4,7,4.9,10.5.8,2,2,3.9,2.9,6,1.2,2.8,2.7,5.4,3.9,8.2.9,2.1,2.1,4.1,3.1,6l46.8-24.4c0-.6.5-.5.9-.7,1.4-.8,2.6-2,3.4-3.5,1.7-3.2,1.8-7,.4-10.2-1.4-3.6-3.4-6.9-4.7-10.7-1.1-2.8-3.2-5-6-6.1-1-.5-1.2-1-.5-2ZM109.1,60.2c.7,1.3.4,2.2-1.2,3l-29.5,15.4c-1.3.7-2.2.3-2.5-1.2,0-.2,0-.4-.2-.6-1.3-2.1-2-4.5-3.2-6.7-.7-1.4-1.1-1.8,1-2.9l30.1-15.7c1-.5,1.3-.3,1.9.6,1.4,2.5,2.3,5.3,3.8,7.9Z"/>
  <path class="st1" d="M90,62.5l5.5-2.9c.8-.4,1.1-.2,1.4.6.2,1.1.6,2.3,1,3.3.2.7,0,1-.6,1.4l-10.8,5.6c-.6.3-.9.2-1-.5-.3-1.2-.7-2.4-1-3.5-.2-.7,0-1,.6-1.3,1.6-1,3.4-1.9,5.2-2.8Z"/>
  <path class="st0" d="M61.9,101.8l-8.5,4.4c-.7.4-1.5.1-1.9-.5,0,0,0,0,0,0l-27.9-53.5c-.4-.7-.1-1.5.5-1.9,0,0,0,0,0,0l8.5-4.4c.7-.4,1.5-.1,1.9.5,0,0,0,0,0,0l27.9,53.5c.4.7.1,1.5-.5,1.9,0,0,0,0,0,0Z"/>
</svg>